<svg xmlns="http://www.w3.org/2000/svg" version="1.1" xmlns:xlink="http://www.w3.org/1999/xlink" xmlns:svgjs="http://svgjs.dev/svgjs" width="1920" height="1080" preserveAspectRatio="none" viewBox="0 0 1920 1080"><g mask="url(&quot;#SvgjsMask1120&quot;)" fill="none"><rect width="1920" height="1080" x="0" y="0" fill="url(&quot;#SvgjsLinearGradient1121&quot;)"></rect><path d="M1920 0L1477.17 0L1920 14.4z" fill="rgba(255, 255, 255, .1)"></path><path d="M1477.17 0L1920 14.4L1920 334.52L1208.0900000000001 0z" fill="rgba(255, 255, 255, .075)"></path><path d="M1208.0900000000001 0L1920 334.52L1920 459.08L928.3500000000001 0z" fill="rgba(255, 255, 255, .05)"></path><path d="M928.35 0L1920 459.08L1920 849.12L714.22 0z" fill="rgba(255, 255, 255, .025)"></path><path d="M0 1080L758.73 1080L0 970.78z" fill="rgba(0, 0, 0, .1)"></path><path d="M0 970.78L758.73 1080L1208.08 1080L0 612.55z" fill="rgba(0, 0, 0, .075)"></path><path d="M0 612.55L1208.08 1080L1333.08 1080L0 446.38z" fill="rgba(0, 0, 0, .05)"></path><path d="M0 446.38L1333.08 1080L1337.35 1080L0 240.60999999999999z" fill="rgba(0, 0, 0, .025)"></path></g><defs><mask id="SvgjsMask1120"><rect width="1920" height="1080" fill="#ffffff"></rect></mask><linearGradient x1="10.94%" y1="-19.44%" x2="89.06%" y2="119.44%" gradientUnits="userSpaceOnUse" id="SvgjsLinearGradient1121"><stop stop-color="rgba(255, 255, 255, 1)" offset="0"></stop><stop stop-color="rgba(248, 249, 250, 1)" offset="1"></stop></linearGradient></defs></svg>